<svg xmlns="http://www.w3.org/2000/svg" viewBox="0 0 64 64" role="img" aria-label="ClearHands favicon">
  <defs>
    <linearGradient id="favGrad" x1="0%" y1="0%" x2="100%" y2="100%">
      <stop offset="0%" stop-color="#4F46E5" />
      <stop offset="100%" stop-color="#06B6D4" />
    </linearGradient>
  </defs>
  <rect width="64" height="64" rx="14" fill="url(#favGrad)"/>
  <!-- Communication waves (accessibility design) -->
  <path d="M 43 21 A 11 11 0 0 1 43 43" stroke="#F59E0B" stroke-width="3.5" fill="none" stroke-linecap="round" />
  <path d="M 49 15 A 17 17 0 0 1 49 49" stroke="#ffffff" stroke-width="3.5" fill="none" stroke-linecap="round" opacity="0.8" />
  
  <!-- Hand Gesture Icon -->
  <path d="M19 38 L25 29 C26.5 27.5 28.5 28.2 29.2 29.5 C30 30.8 29.2 32.8 28 33.5 L24 35.5 L28 35.5 C30 35.5 31.2 36.8 31.2 38.8 C31.2 40.8 30 42.2 28 42.2 L21 42.2" stroke="#ffffff" stroke-width="3" stroke-linecap="round" stroke-linejoin="round" fill="none" />
  <path d="M25 29 L25 22 C25 20.8 26.2 19.5 27.5 19.5 C28.8 19.5 30 20.8 30 22 L30 29" stroke="#ffffff" stroke-width="3" stroke-linecap="round" stroke-linejoin="round" fill="none" />
  <path d="M30 29 L30 25 C30 23.8 31.2 22.5 32.5 22.5 C33.8 22.5 35 23.8 35 25 L35 30" stroke="#ffffff" stroke-width="3" stroke-linecap="round" stroke-linejoin="round" fill="none" />
</svg>
